<?xml version="1.0" encoding="iso-8859-1"?>
<!-- Generator: Adobe Illustrator 18.0.0, SVG Export Plug-In . SVG Version: 6.00 Build 0)  -->
<!DOCTYPE svg PUBLIC "-//W3C//DTD SVG 1.1//EN" "http://www.w3.org/Graphics/SVG/1.1/DTD/svg11.dtd">
<svg version="1.1" id="Capa_1" xmlns="http://www.w3.org/2000/svg" xmlns:xlink="http://www.w3.org/1999/xlink" x="0px" y="0px"
	 viewBox="0 0 363.917 363.917" style="enable-background:new 0 0 363.917 363.917;" xml:space="preserve">
<path d="M361.756,254.972c-2.415-1.844-5.865-1.382-7.709,1.032c-2.802,3.668-7.056,5.771-11.671,5.771
	c-4.615,0-8.869-2.104-11.671-5.771c-4.9-6.415-12.34-10.094-20.412-10.094c-1.288,0-2.557,0.104-3.804,0.287
	c-1.743-20.688-8.561-40.492-19.975-57.864l16.385-16.385c6.628-6.628,6.628-17.414,0-24.042c-3.21-3.211-7.479-4.979-12.021-4.979
	c-4.542,0-8.811,1.768-12.021,4.979l-14.734,14.734c-6.059-5.292-12.554-9.946-19.397-13.929l14.733-33.768
	c3.749-8.591-0.19-18.631-8.795-22.387c-2.165-0.938-4.448-1.413-6.786-1.413c-6.754,0-12.87,4.002-15.581,10.2l-15.037,34.457
	c-10.119-2.605-20.619-3.957-31.302-3.957c-10.68,0-21.177,1.351-31.293,3.954l-15.038-34.459
	c-2.709-6.193-8.829-10.195-15.589-10.195c-2.332,0-4.612,0.476-6.79,1.419c-4.161,1.816-7.366,5.145-9.025,9.373
	c-1.659,4.228-1.572,8.848,0.244,13.008l14.733,33.762c-6.927,4.03-13.496,8.751-19.618,14.122l-14.92-14.92
	c-6.629-6.628-17.414-6.628-24.042,0c-6.627,6.628-6.627,17.413,0,24.042l16.619,16.619c-11.317,17.314-18.076,37.034-19.811,57.63
	c-1.247-0.183-2.515-0.287-3.802-0.287c-8.072,0-15.512,3.679-20.412,10.094c-2.802,3.668-7.056,5.771-11.671,5.771
	s-8.869-2.104-11.671-5.771c-1.844-2.414-5.296-2.877-7.709-1.032c-2.414,1.844-2.876,5.295-1.032,7.709
	c4.9,6.415,12.34,10.094,20.412,10.094s15.512-3.679,20.412-10.094c2.802-3.668,7.056-5.771,11.671-5.771
	c4.616,0,8.87,2.104,11.671,5.771c4.9,6.415,12.34,10.094,20.413,10.094c8.072,0,15.512-3.679,20.412-10.094
	c2.802-3.668,7.056-5.771,11.671-5.771s8.869,2.104,11.671,5.771c4.9,6.415,12.34,10.094,20.412,10.094
	c8.072,0,15.512-3.679,20.413-10.094c2.802-3.668,7.056-5.771,11.671-5.771c4.615,0,8.869,2.104,11.671,5.771
	c4.9,6.415,12.34,10.094,20.412,10.094s15.512-3.679,20.412-10.094c2.802-3.668,7.056-5.771,11.671-5.771
	c4.616,0,8.87,2.104,11.671,5.771c4.9,6.415,12.34,10.094,20.413,10.094c8.072,0,15.512-3.679,20.412-10.094
	c2.802-3.668,7.056-5.771,11.671-5.771s8.869,2.104,11.671,5.771c4.9,6.415,12.34,10.094,20.412,10.094
	c8.072,0,15.512-3.679,20.413-10.094C364.631,260.267,364.169,256.815,361.756,254.972z M238.376,105.746
	c0.958-2.189,3.117-3.604,5.501-3.604c0.825,0,1.637,0.17,2.4,0.501c3.032,1.323,4.422,4.867,3.099,7.9l-14.421,33.054
	c-3.627-1.7-7.333-3.222-11.106-4.562L238.376,105.746z M114.548,110.542c-0.641-1.468-0.671-3.099-0.086-4.591
	c0.585-1.493,1.717-2.667,3.171-3.302c0.776-0.336,1.584-0.507,2.403-0.507c2.39,0,4.553,1.415,5.509,3.6l14.527,33.289
	c-3.773,1.339-7.477,2.861-11.103,4.56L114.548,110.542z M289.88,256.003c-2.802,3.668-7.056,5.771-11.671,5.771
	c-4.616,0-8.87-2.104-11.671-5.771c-4.9-6.415-12.34-10.094-20.413-10.094c-8.072,0-15.512,3.679-20.412,10.094
	c-2.802,3.668-7.056,5.771-11.671,5.771s-8.869-2.104-11.671-5.771c-4.9-6.415-12.34-10.094-20.412-10.094
	c-8.072,0-15.512,3.679-20.413,10.094c-2.802,3.668-7.056,5.771-11.671,5.771c-4.615,0-8.869-2.104-11.671-5.771
	c-4.9-6.415-12.34-10.094-20.412-10.094s-15.512,3.679-20.412,10.094c-2.802,3.668-7.056,5.771-11.671,5.771
	c-4.616,0-8.87-2.104-11.671-5.771c-1.685-2.206-3.677-4.08-5.885-5.6c1.064-19.189,6.915-37.625,17.063-53.86l20.11,20.11
	l7.778-7.778l-44.707-44.706c-2.339-2.34-2.339-6.146,0-8.486c2.339-2.34,6.146-2.34,8.485,0l44.707,44.707l7.778-7.778
	l-21.993-21.993c20.725-17.952,46.994-27.776,74.583-27.776c27.494,0,53.676,9.759,74.368,27.594l-22.175,22.175l7.778,7.778
	l44.707-44.707c1.133-1.133,2.64-1.757,4.243-1.757c1.603,0,3.109,0.624,4.242,1.757c2.339,2.339,2.339,6.146,0,8.485
	l-44.707,44.707l7.778,7.778l20.351-20.351c10.245,16.295,16.152,34.819,17.22,54.102
	C293.555,251.925,291.564,253.798,289.88,256.003z"/>
<g>
</g>
<g>
</g>
<g>
</g>
<g>
</g>
<g>
</g>
<g>
</g>
<g>
</g>
<g>
</g>
<g>
</g>
<g>
</g>
<g>
</g>
<g>
</g>
<g>
</g>
<g>
</g>
<g>
</g>
</svg>
